<?xml version="1.0" encoding="UTF-8" standalone="no"?>
<!-- Created with Inkscape (http://www.inkscape.org/) -->

<svg
   xmlns:dc="http://purl.org/dc/elements/1.1/"
   xmlns:cc="http://creativecommons.org/ns#"
   xmlns:rdf="http://www.w3.org/1999/02/22-rdf-syntax-ns#"
   xmlns:svg="http://www.w3.org/2000/svg"
   xmlns="http://www.w3.org/2000/svg"
   xmlns:xlink="http://www.w3.org/1999/xlink"
   xmlns:sodipodi="http://sodipodi.sourceforge.net/DTD/sodipodi-0.dtd"
   xmlns:inkscape="http://www.inkscape.org/namespaces/inkscape"
   width="200"
   height="200"
   viewBox="0 0 52.916666 52.916668"
   version="1.1"
   id="svg8"
   inkscape:version="0.92.5 (2060ec1f9f, 2020-04-08)"
   sodipodi:docname="LogoStylePlanet.svg">
  <defs
     id="defs2">
    <path
       style="fill:none;stroke:#000000;stroke-width:0.28241724px;stroke-linecap:butt;stroke-linejoin:miter;stroke-opacity:1"
       d="m 79.815309,208.6325 c 23.383511,-18.37997 59.568881,-13.87873 81.774741,-1.09514 v 0"
       id="path1042-7-3-2"
       inkscape:connector-curvature="0"
       sodipodi:nodetypes="ccc" />
    <path
       style="fill:none;stroke:#000000;stroke-width:0.28241724px;stroke-linecap:butt;stroke-linejoin:miter;stroke-opacity:1"
       d="m 79.815309,208.6325 c 23.383511,-18.37997 59.568881,-13.87873 81.774741,-1.09514 v 0"
       id="path1042-7-3-2-5"
       inkscape:connector-curvature="0"
       sodipodi:nodetypes="ccc" />
    <path
       style="fill:none;stroke:#000000;stroke-width:0.29552421px;stroke-linecap:butt;stroke-linejoin:miter;stroke-opacity:1"
       d="m 5.0876877,263.16673 c 0,0 2.5948239,-5.66679 5.8973273,-8.68906 3.302503,-3.02228 7.312685,-5.47789 11.558761,-6.80014 4.246076,-1.32224 12.266443,-2.07782 13.445908,-1.70003 1.179462,0.37779 1.179462,0.37779 1.179462,0.37779"
       id="path1049-5"
       inkscape:connector-curvature="0" />
    <path
       style="fill:none;stroke:#000000;stroke-width:0.29552421px;stroke-linecap:butt;stroke-linejoin:miter;stroke-opacity:1"
       d="m 5.0876877,263.16673 c 0,0 2.5948239,-5.66679 5.8973273,-8.68906 3.302503,-3.02228 7.312685,-5.47789 11.558761,-6.80014 4.246076,-1.32224 12.266443,-2.07782 13.445908,-1.70003 1.179462,0.37779 1.179462,0.37779 1.179462,0.37779"
       id="path1049-1"
       inkscape:connector-curvature="0" />
    <path
       style="fill:none;stroke:#000000;stroke-width:0.29552421px;stroke-linecap:butt;stroke-linejoin:miter;stroke-opacity:1"
       d="m 5.0876877,263.16673 c 0,0 2.5948239,-5.66679 5.8973273,-8.68906 3.302503,-3.02228 7.312685,-5.47789 11.558761,-6.80014 4.246076,-1.32224 12.266443,-2.07782 13.445908,-1.70003 1.179462,0.37779 1.179462,0.37779 1.179462,0.37779"
       id="path1049-1-6"
       inkscape:connector-curvature="0" />
  </defs>
  <sodipodi:namedview
     id="base"
     pagecolor="#ffffff"
     bordercolor="#666666"
     borderopacity="1.0"
     inkscape:pageopacity="0.0"
     inkscape:pageshadow="2"
     inkscape:zoom="1.4"
     inkscape:cx="235.01049"
     inkscape:cy="136.11476"
     inkscape:document-units="mm"
     inkscape:current-layer="layer1"
     showgrid="false"
     units="px"
     inkscape:window-width="1366"
     inkscape:window-height="712"
     inkscape:window-x="0"
     inkscape:window-y="0"
     inkscape:window-maximized="1" />
  <metadata
     id="metadata5">
    <rdf:RDF>
      <cc:Work
         rdf:about="">
        <dc:format>image/svg+xml</dc:format>
        <dc:type
           rdf:resource="http://purl.org/dc/dcmitype/StillImage" />
        <dc:title />
      </cc:Work>
    </rdf:RDF>
  </metadata>
  <g
     inkscape:label="Camada 1"
     inkscape:groupmode="layer"
     id="layer1"
     transform="translate(0,-244.08332)">
    <text
       xml:space="preserve"
       style="font-style:normal;font-variant:normal;font-weight:normal;font-stretch:normal;font-size:10.58333302px;line-height:1.25;font-family:Broadway;-inkscape-font-specification:Broadway;text-align:start;letter-spacing:0px;word-spacing:0px;text-anchor:start;fill:#000000;fill-opacity:1;stroke:none;stroke-width:0.26458332"
       id="text1053"
       x="1.0884908"
       y="-2.7092444"><tspan
         id="tspan1051"
         style="font-size:6.3499999px;stroke-width:0.26458332">Style Planet</tspan><tspan
         style="stroke-width:0.26458332"
         id="tspan1055" /></text>
    <g
       id="g67">
      <path
         d="m 43.136565,251.36475 a 25.070576,24.881588 0 0 1 2.524816,35.09816 25.070576,24.881588 0 0 1 -35.364693,2.50655 25.070576,24.881588 0 0 1 -2.5263595,-35.09805 25.070576,24.881588 0 0 1 35.3645825,-2.50808 l -16.418698,18.80342 z"
         sodipodi:end="5.4264381"
         sodipodi:start="5.4265254"
         sodipodi:ry="24.881588"
         sodipodi:rx="25.070576"
         sodipodi:cy="270.16675"
         sodipodi:cx="26.716213"
         sodipodi:type="arc"
         id="path879"
         style="opacity:1;vector-effect:none;fill:#666666;fill-opacity:1;fill-rule:nonzero;stroke:none;stroke-width:0.47920901;stroke-linecap:butt;stroke-linejoin:miter;stroke-miterlimit:4;stroke-dasharray:none;stroke-dashoffset:0;stroke-opacity:1" />
      <g
         transform="matrix(0.5832886,0,0,0.5832886,-131.10664,78.221418)"
         id="g1305">
        <path
           style="opacity:1;vector-effect:none;fill:#ffcc00;fill-opacity:1;fill-rule:nonzero;stroke:#1a1a1a;stroke-width:0.50228512;stroke-linecap:butt;stroke-linejoin:miter;stroke-miterlimit:4;stroke-dasharray:none;stroke-dashoffset:0;stroke-opacity:1"
           id="path2884-6"
           sodipodi:type="arc"
           sodipodi:cx="415.28552"
           sodipodi:cy="99.193459"
           sodipodi:rx="27.954275"
           sodipodi:ry="38.291542"
           sodipodi:start="2.7961915"
           sodipodi:end="5.484389"
           d="m 388.98223,112.15799 a 27.954275,38.291542 0 0 1 11.16891,-45.15878 27.954275,38.291542 0 0 1 34.63444,4.75771"
           transform="matrix(0.76912516,0.63909818,-0.52989552,0.84806293,0,0)"
           sodipodi:open="true" />
        <path
           style="fill:#ffcc00;stroke:#000000;stroke-width:0.384;stroke-linecap:butt;stroke-linejoin:miter;stroke-miterlimit:4;stroke-dasharray:none;stroke-opacity:1"
           d="m 239.74401,343.1857 -12.21167,11.33964 c 0,0 -0.76581,2.90296 1.14865,1.7418 6.21693,-7.08401 12.50977,-5.90211 15.88986,-5.22537 5.93477,1.16119 9.57222,10.45069 12.25243,10.45069 2.68022,0 31.66042,-16.69816 31.66042,-16.69816 z"
           id="path2950-0"
           inkscape:connector-curvature="0"
           sodipodi:nodetypes="ccccscc" />
        <path
           style="opacity:0.51000001;vector-effect:none;fill:#ffeeaa;fill-opacity:1;fill-rule:nonzero;stroke:none;stroke-width:0.62519312;stroke-linecap:butt;stroke-linejoin:miter;stroke-miterlimit:4;stroke-dasharray:none;stroke-dashoffset:0;stroke-opacity:1"
           id="path886-2"
           sodipodi:type="arc"
           sodipodi:cx="236.86522"
           sodipodi:cy="374.76959"
           sodipodi:rx="1.2008582"
           sodipodi:ry="5.8662195"
           sodipodi:start="5.4265234"
           sodipodi:end="5.4264381"
           d="m 237.65174,370.33672 a 1.2008582,5.8662195 0 0 1 0.12094,8.27494 1.2008582,5.8662195 0 0 1 -1.69394,0.59097 1.2008582,5.8662195 0 0 1 -0.12101,-8.27491 1.2008582,5.8662195 0 0 1 1.69393,-0.59133 l -0.78644,4.4332 z"
           transform="rotate(-9.0456093)" />
        <path
           style="fill:none;stroke:#d4aa00;stroke-width:0.26458332px;stroke-linecap:butt;stroke-linejoin:miter;stroke-opacity:1"
           d="m 271.0714,312.68281 -3.50527,1.47025 c -4.60441,2.52148 -7.12588,4.8237 -7.5644,5.48146 -5.36496,5.90948 -9.89282,15.60667 -14.20381,23.53527"
           id="path2954-1"
           inkscape:connector-curvature="0"
           sodipodi:nodetypes="cccc" />
        <path
           style="opacity:0.38600003;vector-effect:none;fill:#fff6d5;fill-opacity:1;fill-rule:nonzero;stroke:none;stroke-width:2.2099762;stroke-linecap:butt;stroke-linejoin:miter;stroke-miterlimit:4;stroke-dasharray:none;stroke-dashoffset:0;stroke-opacity:1"
           id="path886-3-6"
           sodipodi:type="arc"
           sodipodi:cx="316.17838"
           sodipodi:cy="-323.61975"
           sodipodi:rx="6.4019895"
           sodipodi:ry="13.749358"
           sodipodi:start="5.4265234"
           sodipodi:end="5.4264381"
           d="m 320.37145,-334.0096 a 6.4019895,13.749358 0 0 1 0.64474,19.39496 6.4019895,13.749358 0 0 1 -9.03068,1.38512 6.4019895,13.749358 0 0 1 -0.64513,-19.3949 6.4019895,13.749358 0 0 1 9.03065,-1.38595 l -4.19265,10.39062 z"
           transform="matrix(-0.15773899,0.98748084,-0.99973033,-0.02322195,0,0)" />
        <g
           id="g1102"
           transform="rotate(-1.9254491,253.73808,338.33505)">
          <ellipse
             transform="rotate(2.874176)"
             ry="3.0407684"
             rx="2.8784051"
             cy="324.98297"
             cx="270.49692"
             id="path70-3-9-79"
             style="opacity:1;vector-effect:none;fill:#ffdd55;fill-opacity:1;fill-rule:nonzero;stroke:#333333;stroke-width:0.6123724;stroke-linecap:butt;stroke-linejoin:miter;stroke-miterlimit:4;stroke-dasharray:none;stroke-dashoffset:0;stroke-opacity:1" />
          <path
             sodipodi:nodetypes="cccccc"
             inkscape:connector-curvature="0"
             id="path927-9-2"
             d="m 250.82107,337.43429 c 0,0 -1.01175,-0.0328 -1.16989,0.13902 -0.15815,0.17183 1.26466,0.62079 1.26466,0.62079 1.72286,0.72484 4.46953,0.80848 7.2275,-0.0147 0.29431,-0.23691 -1.15646,-0.42434 -1.15646,-0.42434 v 0"
             style="fill:none;stroke:#333333;stroke-width:0.49902815;stroke-linecap:butt;stroke-linejoin:miter;stroke-miterlimit:4;stroke-dasharray:none;stroke-opacity:1" />
          <text
             transform="matrix(0.9429515,0.04734179,-0.05310953,1.0578335,0,0)"
             id="text961-1-0"
             y="309.90814"
             x="276.35178"
             style="font-style:normal;font-variant:normal;font-weight:normal;font-stretch:normal;font-size:7.89164734px;line-height:1.25;font-family:'Arial Black';-inkscape-font-specification:'Arial Black, ';text-align:start;letter-spacing:0px;word-spacing:0px;text-anchor:start;fill:#333333;fill-opacity:1;stroke:none;stroke-width:0.04110233"
             xml:space="preserve"><tspan
               style="font-style:normal;font-variant:normal;font-weight:normal;font-stretch:normal;font-size:7.89164734px;font-family:'Arial Black';-inkscape-font-specification:'Arial Black, ';fill:#333333;stroke-width:0.04110233"
               y="309.90814"
               x="276.35178"
               id="tspan959-4-2"
               sodipodi:role="line">3</tspan></text>
          <text
             transform="matrix(0.9429515,0.04734179,-0.05310953,1.0578335,0,0)"
             id="text965-9-3"
             y="309.93457"
             x="291.22537"
             style="font-style:normal;font-variant:normal;font-weight:normal;font-stretch:normal;font-size:7.89164734px;line-height:1.25;font-family:'Arial Black';-inkscape-font-specification:'Arial Black, ';text-align:start;letter-spacing:0px;word-spacing:0px;text-anchor:start;fill:#333333;fill-opacity:1;stroke:none;stroke-width:0.04110233"
             xml:space="preserve"><tspan
               style="font-style:normal;font-variant:normal;font-weight:normal;font-stretch:normal;font-size:7.89164734px;font-family:'Arial Black';-inkscape-font-specification:'Arial Black, ';fill:#333333;stroke-width:0.04110233"
               y="309.93457"
               x="291.22537"
               id="tspan963-1-7"
               sodipodi:role="line">2</tspan></text>
        </g>
        <path
           style="opacity:0.43500001;fill:#ffeeaa;stroke:none;stroke-width:0.18454173px;stroke-linecap:butt;stroke-linejoin:miter;stroke-opacity:1"
           d="m 241.32606,343.5794 -8.60571,6.7714 c 0,0 -0.53966,1.7335 0.80948,1.04012 4.38113,-4.23018 8.81579,-3.52442 11.19776,-3.12031 4.1823,0.69341 6.74566,6.24057 8.63443,6.24057 1.88878,0 22.58337,-10.02707 22.58337,-10.02707 z"
           id="path2950-1-9"
           inkscape:connector-curvature="0"
           sodipodi:nodetypes="ccccscc" />
        <path
           style="opacity:0.83999999;vector-effect:none;fill:#ffeeaa;fill-opacity:1;fill-rule:nonzero;stroke:none;stroke-width:0.19830126;stroke-linecap:butt;stroke-linejoin:miter;stroke-miterlimit:4;stroke-dasharray:none;stroke-dashoffset:0;stroke-opacity:1"
           id="path886-3-6-3"
           sodipodi:type="arc"
           sodipodi:cx="321.9299"
           sodipodi:cy="-274.36066"
           sodipodi:rx="0.89332831"
           sodipodi:ry="0.7933448"
           sodipodi:start="5.4265234"
           sodipodi:end="5.4264381"
           d="m 322.515,-274.96016 a 0.89332831,0.7933448 0 0 1 0.09,1.1191 0.89332831,0.7933448 0 0 1 -1.26014,0.0799 0.89332831,0.7933448 0 0 1 -0.09,-1.11909 0.89332831,0.7933448 0 0 1 1.26013,-0.08 l -0.58504,0.59954 z"
           transform="matrix(-0.06513871,0.99787622,-0.99838844,-0.05674966,0,0)" />
        <path
           style="fill:#ffcc00;stroke:none;stroke-width:0.26458332px;stroke-linecap:butt;stroke-linejoin:miter;stroke-opacity:1"
           d="m 245.79792,343.16979 43.07165,1.53097 7.2467,-6.108 z"
           id="path1104"
           inkscape:connector-curvature="0"
           sodipodi:nodetypes="cccc" />
        <path
           style="fill:none;stroke:#d4aa00;stroke-width:0.28831318px;stroke-linecap:butt;stroke-linejoin:miter;stroke-opacity:1"
           d="m 272.31452,312.78327 3.50548,1.7457 c 4.60469,2.99388 7.12632,5.72741 7.56486,6.50839 3.55457,4.64859 5.16592,18.24692 5.48471,23.6634"
           id="path2954-0-6"
           inkscape:connector-curvature="0"
           sodipodi:nodetypes="cccc" />
        <path
           style="fill:none;stroke:#000000;stroke-width:0.26458332px;stroke-linecap:butt;stroke-linejoin:miter;stroke-opacity:1"
           d="m 288.86957,344.70076 7.51128,-5.9757"
           id="path1108"
           inkscape:connector-curvature="0"
           sodipodi:nodetypes="cc" />
        <path
           sodipodi:type="star"
           style="opacity:0.84600004;vector-effect:none;fill:#333333;fill-opacity:1;fill-rule:nonzero;stroke:none;stroke-width:0.23285882;stroke-linecap:butt;stroke-linejoin:miter;stroke-miterlimit:4;stroke-dasharray:none;stroke-dashoffset:0;stroke-opacity:1"
           id="path1152"
           sodipodi:sides="5"
           sodipodi:cx="293.57132"
           sodipodi:cy="337.72293"
           sodipodi:r1="1.2935423"
           sodipodi:r2="0.64677113"
           sodipodi:arg1="-0.51914611"
           sodipodi:arg2="0.10917242"
           inkscape:flatsided="false"
           inkscape:rounded="0"
           inkscape:randomized="0"
           d="m 294.69443,337.08115 -0.48019,0.71225 0.31451,0.79935 -0.82578,-0.23659 -0.66304,0.54613 -0.0302,-0.85847 -0.72428,-0.46183 0.80713,-0.29397 0.2154,-0.83155 0.529,0.67678 z"
           inkscape:transform-center-x="0.081364688"
           inkscape:transform-center-y="-0.043557944" />
        <path
           sodipodi:type="star"
           style="opacity:0.84600004;vector-effect:none;fill:#333333;fill-opacity:1;fill-rule:nonzero;stroke:none;stroke-width:0.23285882;stroke-linecap:butt;stroke-linejoin:miter;stroke-miterlimit:4;stroke-dasharray:none;stroke-dashoffset:0;stroke-opacity:1"
           id="path1152-7"
           sodipodi:sides="5"
           sodipodi:cx="291.08783"
           sodipodi:cy="339.85922"
           sodipodi:r1="1.2935421"
           sodipodi:r2="0.64677113"
           sodipodi:arg1="-0.51914611"
           sodipodi:arg2="0.10917242"
           inkscape:flatsided="false"
           inkscape:rounded="0"
           inkscape:randomized="0"
           d="m 292.21094,339.21745 -0.48019,0.71224 0.31451,0.79935 -0.82578,-0.23659 -0.66304,0.54613 -0.0302,-0.85847 -0.72428,-0.46183 0.80713,-0.29397 0.2154,-0.83155 0.529,0.67678 z"
           inkscape:transform-center-x="0.081364688"
           inkscape:transform-center-y="-0.043557944" />
        <path
           style="opacity:1;vector-effect:none;fill:#1a1a1a;fill-opacity:1;fill-rule:nonzero;stroke:none;stroke-width:2.25600314;stroke-linecap:butt;stroke-linejoin:miter;stroke-miterlimit:4;stroke-dasharray:none;stroke-dashoffset:0;stroke-opacity:1"
           id="path2952-5"
           sodipodi:type="arc"
           sodipodi:cx="415.77081"
           sodipodi:cy="21.567984"
           sodipodi:rx="3.0773671"
           sodipodi:ry="3.5243654"
           sodipodi:start="2.3267508"
           sodipodi:end="5.4264381"
           d="m 413.65979,24.132372 a 3.0773671,3.5243654 0 0 1 -0.17186,-4.927787 3.0773671,3.5243654 0 0 1 4.29825,-0.300022 l -2.01537,2.663421 z"
           transform="matrix(0.69170776,0.72217753,-0.76932196,0.63886126,0,0)" />
      </g>
      <text
         transform="matrix(0.99982012,1.0790826,-0.83149903,1.5839764,221.71687,-158.14389)"
         y="10.268764"
         x="1.7463307"
         id="text1053-0"
         style="font-style:normal;font-variant:normal;font-weight:normal;font-stretch:normal;font-size:10.58333302px;line-height:1.25;font-family:Broadway;-inkscape-font-specification:Broadway;text-align:start;letter-spacing:0px;word-spacing:0px;text-anchor:start;fill:#333333;fill-opacity:1;stroke:none;stroke-width:0.26458332;"
         xml:space="preserve"><textPath
           id="textPath1057-3"
           xlink:href="#path1049-1"
           style="font-style:normal;font-variant:normal;font-weight:normal;font-stretch:normal;font-size:6.3499999px;font-family:Dyuthi;-inkscape-font-specification:Dyuthi;fill:#333333;stroke-width:0.26458332;">Style Planet</textPath></text>
      <text
         transform="matrix(0.99982012,1.0790826,-0.83149903,1.5839764,221.82719,-157.34743)"
         y="10.268764"
         x="1.7463307"
         id="text1053-0-3"
         style="font-style:normal;font-variant:normal;font-weight:normal;font-stretch:normal;font-size:10.58333302px;line-height:1.25;font-family:Broadway;-inkscape-font-specification:Broadway;text-align:start;letter-spacing:0px;word-spacing:0px;text-anchor:start;fill:#e6e6e6;fill-opacity:1;stroke:none;stroke-width:0.26458332;"
         xml:space="preserve"><textPath
           id="textPath1057-3-1"
           xlink:href="#path1049-1-6"
           style="font-style:normal;font-variant:normal;font-weight:normal;font-stretch:normal;font-size:6.3499999px;font-family:Dyuthi;-inkscape-font-specification:Dyuthi;fill:#e6e6e6;stroke-width:0.26458332;">Style Planet</textPath></text>
    </g>
  </g>
</svg>
